<svg width="100" height="100" viewBox="0 0 100 100" fill="none" xmlns="http://www.w3.org/2000/svg">
<g clip-path="url(#clip0_90_2)">
<path d="M24.2979 66C23.7282 66 23.2952 65.8519 22.999 65.5557C22.7028 65.2367 22.5547 64.8949 22.5547 64.5303C22.5547 64.1657 22.6914 63.8353 22.9648 63.5391C23.2611 63.2428 23.694 63.0947 24.2637 63.0947H30.0742V28.915H25.46C24.9131 28.915 24.5029 28.7669 24.2295 28.4707C23.9561 28.1745 23.8193 27.8441 23.8193 27.4795C23.8193 27.0921 23.9561 26.7503 24.2295 26.4541C24.5257 26.1351 24.9587 25.9756 25.5283 25.9756H55.9824C57.2585 25.9756 57.8965 26.5908 57.8965 27.8213V37.0498C57.8965 37.5511 57.7484 37.9271 57.4521 38.1777C57.1787 38.4284 56.8711 38.5537 56.5293 38.5537C56.1875 38.5537 55.8685 38.4512 55.5723 38.2461C55.276 38.0182 55.1165 37.6878 55.0938 37.2549L54.6152 28.915H33.3555V43.6465H44.874L45.3184 39.1006C45.3639 38.5765 45.5234 38.1891 45.7969 37.9385C46.0931 37.6878 46.3893 37.5625 46.6855 37.5625C47.0046 37.5625 47.3008 37.7106 47.5742 38.0068C47.8477 38.2803 47.9844 38.736 47.9844 39.374V51.0635C47.9844 51.6559 47.8477 52.1003 47.5742 52.3965C47.3008 52.6699 47.0046 52.8066 46.6855 52.8066C46.3665 52.8066 46.0703 52.6813 45.7969 52.4307C45.5234 52.18 45.3639 51.8154 45.3184 51.3369L44.874 46.2783H33.3555V63.0947H45.3184C45.8424 63.0947 46.2298 63.2428 46.4805 63.5391C46.7539 63.8353 46.8906 64.1657 46.8906 64.5303C46.8906 64.8949 46.7539 65.2367 46.4805 65.5557C46.2298 65.8519 45.8538 66 45.3525 66H24.2979Z" fill="white"/>
<path d="M53.5537 82.6465C53.0752 82.6465 52.7106 82.4984 52.46 82.2021C52.2321 81.9059 52.1182 81.5755 52.1182 81.2109C52.1182 80.8691 52.2321 80.5501 52.46 80.2539C52.6878 79.9805 53.0296 79.8438 53.4854 79.8438H56.5615V45.8008L52.8701 46.5186C52.7562 46.5413 52.6423 46.5641 52.5283 46.5869C52.4144 46.6097 52.3005 46.6211 52.1865 46.6211C51.7764 46.6211 51.446 46.4958 51.1953 46.2451C50.9674 45.9717 50.8535 45.6641 50.8535 45.3223C50.8535 45.0488 50.9333 44.7754 51.0928 44.502C51.2751 44.2057 51.5713 44.012 51.9814 43.9209L57.5869 42.793C57.9059 42.7474 58.111 42.7246 58.2021 42.7246C59.0452 42.7246 59.4896 43.1689 59.5352 44.0576L59.6377 46.416C60.7314 45.2995 62.1328 44.3197 63.8418 43.4766C65.5736 42.6335 67.5218 42.2119 69.6865 42.2119C72.3753 42.2119 74.6654 42.8271 76.5566 44.0576C78.4707 45.2653 79.929 46.9401 80.9316 49.082C81.957 51.2012 82.4697 53.6393 82.4697 56.3965C82.4697 59.1081 81.9456 61.5348 80.8975 63.6768C79.8721 65.8187 78.391 67.5049 76.4541 68.7354C74.5173 69.9658 72.2158 70.5811 69.5498 70.5811C67.3395 70.5811 65.4824 70.2507 63.9785 69.5898C62.4974 68.929 61.1188 68.0518 59.8428 66.958V79.8438H67.2256C67.7041 79.8438 68.0573 79.9805 68.2852 80.2539C68.5358 80.5273 68.6611 80.835 68.6611 81.1768C68.6611 81.5413 68.5244 81.8717 68.251 82.168C68.0003 82.487 67.613 82.6465 67.0889 82.6465H53.5537ZM69.3447 67.7783C71.5322 67.7783 73.3551 67.2542 74.8135 66.2061C76.2718 65.1351 77.3656 63.7337 78.0947 62.002C78.8239 60.2702 79.1885 58.4017 79.1885 56.3965C79.1885 54.3457 78.8353 52.4658 78.1289 50.7568C77.4225 49.0251 76.3516 47.6351 74.916 46.5869C73.5033 45.5387 71.7373 45.0146 69.6182 45.0146C67.3167 45.0146 65.3571 45.4932 63.7393 46.4502C62.1442 47.3844 60.8454 48.5579 59.8428 49.9707V63.3691C60.9137 64.7135 62.224 65.7845 63.7734 66.582C65.3229 67.3796 67.18 67.7783 69.3447 67.7783Z" fill="white"/>
</g>
<defs>
<clipPath id="clip0_90_2">
<rect width="100" height="100" fill="white"/>
</clipPath>
</defs>
</svg>
